<?xml version="1.0" encoding="UTF-8"?><svg id="Capa_1" xmlns="http://www.w3.org/2000/svg" viewBox="0 0 2066.451 1838.351"><defs><style>.cls-1{fill:#feffff;font-family:MonaspaceRadonVar-Regular, 'Monaspace Radon Var';font-size:90px;font-variation-settings:'wght' 400, 'wdth' 100, 'slnt' 0;}.cls-2{fill:#5e5e6d;}.cls-2,.cls-3,.cls-4,.cls-5,.cls-6,.cls-7,.cls-8,.cls-9{stroke-width:0px;}.cls-3{fill:#0f0f18;}.cls-4{fill:#202033;}.cls-5{fill:#dbdbdb;}.cls-6{fill:#d4d4dd;}.cls-7{fill:#9d9da8;}.cls-8{fill:#b6b6bf;}.cls-9{fill:#999aa3;}</style></defs><polygon class="cls-5" points="737.032 696.443 728.767 674.217 835.155 627.642 960.127 572.931 1077.433 521.577 1202.405 466.866 1319.71 415.512 1444.683 360.801 1561.987 309.447 1686.96 254.736 1804.265 203.382 1929.237 148.672 1961.928 134.36 1926.774 54.059 1903.108 0 1800.143 45.076 1682.838 96.431 1557.866 151.141 1440.561 202.495 1315.589 257.206 1198.283 308.56 1073.311 363.271 956.006 414.625 831.034 469.336 713.728 520.69 679.013 535.888 591.712 574.106 588.756 575.401 559.433 588.238 588.569 654.791 590.965 660.263 590.965 660.264 606.804 696.443 599.657 696.443 599.657 874.056 617.971 874.056 617.971 1838.351 2048.137 1838.351 2048.137 874.056 2066.451 874.056 2066.451 696.443 737.032 696.443"/><path class="cls-4" d="M715.032,570.77l-1.304-50.079-34.715,15.198,27.756,25.092c3.438,3.108,6.138,6.402,8.263,9.79Z"/><path class="cls-4" d="M628.055,696.443l18.729-50.369c-31.478,9.985-55.78-4.351-55.464-34.552l.391-37.415-2.956,1.294,1.545,59.364.664,25.498h0s15.838,36.18,15.838,36.18h21.251Z"/><path class="cls-4" d="M716.894,642.286l-.384-14.739-.591-22.686c-2.17,3.901-5.098,7.644-8.801,11.137l9.775,26.288Z"/><polygon class="cls-4" points="833.815 576.193 835.155 627.641 835.155 627.642 960.127 572.931 960.127 572.931 958.788 521.482 957.551 473.99 956.006 414.625 831.034 469.336 832.579 528.7 833.815 576.193"/><polygon class="cls-4" points="1076.093 470.128 1077.433 521.576 1077.433 521.577 1202.405 466.866 1202.405 466.866 1201.065 415.417 1199.828 367.925 1198.283 308.56 1073.311 363.271 1074.856 422.636 1076.093 470.128"/><polygon class="cls-4" points="1318.371 364.064 1319.71 415.512 1319.71 415.512 1444.683 360.801 1444.683 360.801 1443.343 309.353 1442.106 261.86 1440.561 202.495 1315.589 257.206 1317.134 316.571 1318.371 364.064"/><polygon class="cls-4" points="1560.648 257.999 1561.987 309.447 1561.987 309.447 1686.96 254.736 1685.62 203.288 1684.383 155.796 1682.838 96.431 1557.866 151.141 1559.411 210.506 1560.648 257.999"/><polygon class="cls-4" points="1802.925 151.934 1804.265 203.382 1804.265 203.382 1929.237 148.672 1927.898 97.223 1926.774 54.06 1926.774 54.059 1903.108 0 1800.143 45.076 1801.689 104.441 1802.925 151.934"/><path class="cls-4" d="M748.812,749.88c.158.926.276,1.838.388,2.751l15.904-47.307h-24.77l5.223,14.045c4.09,10.999,4.997,21.372,3.255,30.512Z"/><path class="cls-4" d="M1951.067,705.323l-19.406,57.725-17.913,53.284-19.406,57.723h0s-128.054,0-128.054,0h0s19.406-57.724,19.406-57.724l17.914-53.284,19.406-57.725h-136.424l-19.405,57.725-17.914,53.284-19.406,57.723h0s-128.053,0-128.053,0h0s19.406-57.724,19.406-57.724l17.914-53.284,19.406-57.725h-136.423l-19.406,57.725-17.913,53.284-19.406,57.723h0s-128.054,0-128.054,0h0s19.406-57.724,19.406-57.724l17.913-53.284,19.406-57.725h-136.424l-19.406,57.725-17.914,53.284-19.406,57.723h0s-128.054,0-128.054,0h0s19.406-57.724,19.406-57.724l17.914-53.284,19.406-57.725h-136.423l-19.407,57.725-17.913,53.284-19.406,57.723h0s-128.054,0-128.054,0h0s19.406-57.724,19.406-57.724l8.557-25.452c-8.659,7.98-21.145,12.76-36.575,12.76h-34.445c-34.238,0-54.263-23.27-49.046-53.759-.341-1.791-.591-3.623-.722-5.505l-6.277,18.673-9.618,28.608h0v82.4h18.314v964.295h1430.166v-964.295h-17.372,0s19.406-57.724,19.406-57.724l16.28-48.428v-62.582h-115.384ZM1983.565,1531.967h-302.684v236.819h-26.642v-236.819h-621.648v236.819h-26.642v-236.819h-323.406v-22.201h1301.022v22.201ZM682.543,1317.351v-22.202h1301.022v22.202H682.543ZM1983.565,1102.734H682.543v-22.202h1301.022v22.202Z"/><path class="cls-4" d="M715.032,570.77l-1.304-50.079-34.715,15.198,27.756,25.092c3.438,3.108,6.138,6.402,8.263,9.79Z"/><path class="cls-4" d="M628.055,696.443l18.729-50.369c-31.478,9.985-55.78-4.351-55.464-34.552l.391-37.415-2.956,1.294,1.545,59.364.664,25.498h0s15.838,36.18,15.838,36.18h21.251Z"/><path class="cls-4" d="M716.894,642.286l-.384-14.739-.591-22.686c-2.17,3.901-5.098,7.644-8.801,11.137l9.775,26.288Z"/><polygon class="cls-4" points="833.815 576.193 835.155 627.641 835.155 627.642 960.127 572.931 960.127 572.931 958.788 521.482 957.551 473.99 956.006 414.625 831.034 469.336 832.579 528.7 833.815 576.193"/><polygon class="cls-4" points="1076.093 470.128 1077.433 521.576 1077.433 521.577 1202.405 466.866 1202.405 466.866 1201.065 415.417 1199.828 367.925 1198.283 308.56 1073.311 363.271 1074.856 422.636 1076.093 470.128"/><polygon class="cls-4" points="1318.371 364.064 1319.71 415.512 1319.71 415.512 1444.683 360.801 1444.683 360.801 1443.343 309.353 1442.106 261.86 1440.561 202.495 1315.589 257.206 1317.134 316.571 1318.371 364.064"/><polygon class="cls-4" points="1560.648 257.999 1561.987 309.447 1561.987 309.447 1686.96 254.736 1686.96 254.736 1685.62 203.288 1684.383 155.796 1682.838 96.431 1557.866 151.141 1559.411 210.506 1560.648 257.999"/><polygon class="cls-4" points="1802.925 151.934 1804.265 203.382 1804.265 203.382 1929.237 148.672 1929.237 148.672 1927.898 97.223 1926.774 54.06 1926.774 54.059 1903.108 0 1800.143 45.076 1801.689 104.441 1802.925 151.934"/><path class="cls-4" d="M1966.942,1317.351H682.543v-22.202h1249.336c-128.812-78.717-280.386-141.916-435.103-192.414h-814.232v-22.202h743.378c-318.177-95.722-636.93-139.906-787.042-156.877v885.092h1388.348v-449.117c-19.345-14.545-39.473-28.633-60.286-42.281ZM1983.565,1531.967h-302.684v236.819h-26.642v-236.819h-621.648v236.819h-26.642v-236.819h-323.406v-22.201h1301.022v22.201Z"/><text/><path class="cls-4" d="M765.105,705.323h-24.77l5.223,14.045c4.09,10.999,4.997,21.372,3.255,30.512.158.926.276,1.838.388,2.751l15.904-47.307Z"/><path class="cls-4" d="M708.379,874.056h0s19.406-57.724,19.406-57.724l8.557-25.452c-8.659,7.98-21.145,12.76-36.575,12.76h-34.445c-34.238,0-54.263-23.27-49.046-53.759-.341-1.791-.591-3.623-.722-5.505l-6.277,18.673-9.618,28.608h0v82.4h108.722Z"/><polygon class="cls-4" points="992.262 816.332 1010.176 763.048 1029.582 705.323 893.158 705.323 873.752 763.048 855.839 816.332 836.433 874.056 836.433 874.056 972.856 874.056 972.856 874.056 992.262 816.332"/><polygon class="cls-4" points="1256.739 816.332 1274.652 763.048 1294.059 705.323 1157.635 705.323 1138.229 763.048 1120.316 816.332 1100.91 874.056 1100.91 874.056 1237.333 874.056 1237.334 874.056 1256.739 816.332"/><polygon class="cls-4" points="1521.216 816.332 1539.13 763.048 1558.536 705.323 1422.112 705.323 1402.706 763.048 1384.793 816.332 1365.387 874.056 1365.387 874.056 1501.811 874.056 1501.811 874.056 1521.216 816.332"/><polygon class="cls-4" points="1785.693 816.332 1803.607 763.048 1823.013 705.323 1686.589 705.323 1667.184 763.048 1649.27 816.332 1629.864 874.056 1629.864 874.056 1766.287 874.056 1766.288 874.056 1785.693 816.332"/><polygon class="cls-4" points="1931.661 763.048 1913.747 816.332 1894.342 874.056 1894.341 874.056 2030.764 874.056 2030.765 874.056 2050.171 816.332 2066.451 767.905 2066.451 705.323 1951.067 705.323 1931.661 763.048"/><path class="cls-8" d="M716.51,627.547l117.305-51.354-1.236-47.493-113.796,49.818c2.927,8.79,1.826,17.912-2.864,26.343l.591,22.686Z"/><polygon class="cls-8" points="1926.774 54.06 1927.898 97.223 1942.812 90.694 1926.774 54.06"/><polygon class="cls-8" points="1074.856 422.636 957.551 473.99 958.788 521.482 1076.093 470.128 1074.856 422.636"/><polygon class="cls-8" points="1559.411 210.506 1442.106 261.86 1443.343 309.353 1560.648 257.999 1559.411 210.506"/><polygon class="cls-8" points="1801.689 104.441 1684.383 155.796 1685.62 203.288 1802.925 151.934 1801.689 104.441"/><polygon class="cls-8" points="1317.134 316.571 1199.828 367.925 1201.065 415.417 1318.371 364.064 1317.134 316.571"/><polygon class="cls-8" points="590.965 660.263 590.301 634.765 581.491 638.622 590.965 660.263"/><polygon class="cls-9" points="1942.812 90.694 1942.812 90.694 1927.898 97.223 1929.237 148.672 1961.928 134.36 1942.812 90.694"/><polygon class="cls-9" points="1318.371 364.064 1201.065 415.417 1202.405 466.866 1319.71 415.512 1318.371 364.064"/><polygon class="cls-9" points="1076.093 470.128 958.788 521.482 960.127 572.931 1077.433 521.576 1076.093 470.128"/><polygon class="cls-9" points="716.51 627.547 716.894 642.286 728.767 674.216 835.155 627.641 833.815 576.193 716.51 627.547"/><polygon class="cls-9" points="1560.648 257.999 1443.343 309.353 1444.683 360.801 1561.987 309.447 1560.648 257.999"/><polygon class="cls-9" points="1802.925 151.934 1685.62 203.288 1686.96 254.736 1804.265 203.382 1802.925 151.934"/><path class="cls-3" d="M646.785,646.073l11.26-30.281c13.474-36.234,35.523-36.234,48.997,0l.076.205c3.702-3.493,6.631-7.236,8.801-11.137,4.69-8.43,5.791-17.552,2.864-26.343-.875-2.627-2.16-5.213-3.751-7.749-2.125-3.388-4.825-6.681-8.263-9.79l-27.756-25.092-87.301,38.219-.391,37.415c-.316,30.201,23.986,44.537,55.464,34.552Z"/><path class="cls-8" d="M873.752,763.048h-124.223c-.843,11.173-5.51,20.757-13.187,27.832l-8.557,25.452h128.054l17.913-53.284Z"/><polygon class="cls-8" points="2066.451 816.332 2066.451 767.905 2050.171 816.332 2066.451 816.332"/><polygon class="cls-8" points="1384.793 816.332 1402.706 763.048 1274.652 763.048 1256.739 816.332 1384.793 816.332"/><polygon class="cls-8" points="1649.27 816.332 1667.184 763.048 1539.13 763.048 1521.216 816.332 1649.27 816.332"/><polygon class="cls-8" points="1913.747 816.332 1931.661 763.048 1803.607 763.048 1785.693 816.332 1913.747 816.332"/><polygon class="cls-8" points="1120.316 816.332 1138.229 763.048 1010.176 763.048 992.262 816.332 1120.316 816.332"/><polygon class="cls-8" points="599.657 791.656 609.275 763.048 599.657 763.048 599.657 791.656"/><polygon class="cls-9" points="972.856 874.056 1100.91 874.056 1120.316 816.332 992.262 816.332 972.856 874.056"/><polygon class="cls-9" points="1766.288 874.056 1894.342 874.056 1913.747 816.332 1785.693 816.332 1766.288 874.056"/><polygon class="cls-9" points="2030.765 874.056 2066.451 874.056 2066.451 816.332 2050.171 816.332 2030.765 874.056"/><polygon class="cls-9" points="1237.334 874.056 1365.387 874.056 1384.793 816.332 1256.739 816.332 1237.334 874.056"/><polygon class="cls-9" points="1501.811 874.056 1629.864 874.056 1649.27 816.332 1521.216 816.332 1501.811 874.056"/><polygon class="cls-9" points="855.839 816.332 727.785 816.332 708.379 874.056 836.433 874.056 855.839 816.332"/><path class="cls-3" d="M749.529,763.048c.252-3.339.113-6.832-.328-10.418-.112-.913-.23-1.824-.388-2.751-3.996,20.97-22.122,35.37-49.046,35.37h-34.445c-26.924,0-45.049-14.398-49.046-35.369-5.216,30.49,14.808,53.759,49.046,53.759h34.445c15.43,0,27.916-4.78,36.575-12.76,7.677-7.075,12.344-16.659,13.187-27.832Z"/><path class="cls-8" d="M716.894,642.286l-9.775-26.288-.076-.205c-13.474-36.234-35.523-36.234-48.997,0l-11.26,30.281-18.729,50.369-8.525,22.925c-3.289,8.844-4.516,17.284-3.978,25.008.131,1.882.381,3.714.722,5.505,3.997,20.97,22.122,35.369,49.046,35.369h34.445c26.924,0,45.049-14.399,49.046-35.37,1.742-9.14.835-19.513-3.255-30.512l-5.223-14.045-3.302-8.88-8.265-22.226h0s-11.873-31.93-11.873-31.93ZM697.825,778.054h-30.563c-34.302,0-52.585-26.305-40.63-58.457l34.174-91.9c11.955-32.151,31.519-32.151,43.474,0l34.174,91.9c11.955,32.151-6.328,58.457-40.63,58.457Z"/><path class="cls-7" d="M738.455,719.597l-34.174-91.9c-11.955-32.151-31.519-32.151-43.474,0l-34.174,91.9c-11.955,32.151,6.328,58.457,40.63,58.457h30.563c34.301,0,52.585-26.305,40.63-58.457ZM726.947,736.77c0,1.091-.175,2.133-.429,3.145.254,1.012.429,2.054.429,3.145,0,7.153-5.798,12.951-12.951,12.951s-12.951-5.798-12.951-12.951c0-1.091.175-2.133.429-3.145-.254-1.012-.429-2.054-.429-3.145,0-7.153,5.798-12.951,12.951-12.951s12.951,5.798,12.951,12.951ZM669.592,643.529c0-7.153,5.799-12.951,12.951-12.951s12.951,5.798,12.951,12.951c0,1.09-.175,2.133-.429,3.145.254,1.012.429,2.054.429,3.145,0,7.152-5.798,12.951-12.951,12.951s-12.951-5.799-12.951-12.951c0-1.091.175-2.133.429-3.145-.254-1.012-.429-2.055-.429-3.145ZM651.831,726.964c7.153,0,12.951,5.798,12.951,12.951,0,1.091-.175,2.133-.429,3.145.254,1.012.429,2.055.429,3.145,0,7.153-5.798,12.951-12.951,12.951s-12.951-5.798-12.951-12.951c0-1.09.175-2.133.429-3.145-.254-1.012-.429-2.054-.429-3.145,0-7.153,5.798-12.951,12.951-12.951Z"/><path class="cls-2" d="M669.592,649.819c0,7.152,5.799,12.951,12.951,12.951s12.951-5.799,12.951-12.951c0-1.091-.175-2.133-.429-3.145-1.411,5.624-6.46,9.805-12.522,9.805s-11.11-4.181-12.522-9.805c-.254,1.012-.429,2.054-.429,3.145Z"/><path class="cls-6" d="M682.543,656.479c6.062,0,11.111-4.181,12.522-9.805.254-1.012.429-2.055.429-3.145,0-7.153-5.798-12.951-12.951-12.951s-12.951,5.798-12.951,12.951c0,1.09.175,2.133.429,3.145,1.411,5.624,6.46,9.805,12.522,9.805Z"/><path class="cls-2" d="M651.831,752.866c-6.062,0-11.11-4.182-12.522-9.806-.254,1.012-.429,2.055-.429,3.145,0,7.153,5.798,12.951,12.951,12.951s12.951-5.798,12.951-12.951c0-1.09-.175-2.133-.429-3.145-1.411,5.624-6.46,9.806-12.522,9.806Z"/><path class="cls-6" d="M639.309,743.06c1.411,5.624,6.46,9.806,12.522,9.806s11.111-4.182,12.522-9.806c.254-1.012.429-2.054.429-3.145,0-7.153-5.798-12.951-12.951-12.951s-12.951,5.798-12.951,12.951c0,1.091.175,2.133.429,3.145Z"/><path class="cls-2" d="M713.996,749.721c-6.062,0-11.111-4.182-12.522-9.806-.254,1.012-.429,2.054-.429,3.145,0,7.153,5.798,12.951,12.951,12.951s12.951-5.798,12.951-12.951c0-1.091-.175-2.133-.429-3.145-1.411,5.624-6.46,9.806-12.522,9.806Z"/><path class="cls-6" d="M713.996,723.819c-7.153,0-12.951,5.798-12.951,12.951,0,1.091.175,2.133.429,3.145,1.411,5.624,6.46,9.806,12.522,9.806s11.11-4.182,12.522-9.806c.254-1.012.429-2.054.429-3.145,0-7.153-5.798-12.951-12.951-12.951Z"/><text class="cls-1" transform="translate(1029.2 1028.216)"><tspan x="0" y="0">CINNABUNDAY</tspan></text><text/></svg>