<?xml version="1.0" encoding="UTF-8"?><svg id="Capa_1" xmlns="http://www.w3.org/2000/svg" viewBox="0 0 2066.07 1838.35"><defs><style>.cls-1{fill:#feffff;font-family:MonaspaceRadonVar-Regular, 'Monaspace Radon Var';font-size:90px;font-variation-settings:'wght' 400, 'wdth' 100, 'slnt' 0;}.cls-2{fill:#5e5e6d;}.cls-2,.cls-3,.cls-4,.cls-5,.cls-6,.cls-7,.cls-8,.cls-9{stroke-width:0px;}.cls-3{fill:#0f0f18;}.cls-4{fill:#202033;}.cls-5{fill:#dbdbdb;}.cls-6{fill:#d4d4dd;}.cls-7{fill:#9d9da8;}.cls-8{fill:#b6b6bf;}.cls-9{fill:#999aa3;}</style></defs><polygon class="cls-5" points="736.65 696.44 728.39 674.22 834.77 627.64 959.75 572.93 1077.05 521.58 1202.02 466.87 1319.33 415.51 1444.3 360.8 1561.61 309.45 1686.58 254.74 1803.88 203.38 1928.86 148.67 1961.55 134.36 1926.39 54.06 1902.73 0 1799.76 45.08 1682.46 96.43 1557.48 151.14 1440.18 202.5 1315.21 257.21 1197.9 308.56 1072.93 363.27 955.62 414.63 830.65 469.34 713.35 520.69 678.63 535.89 591.33 574.11 588.37 575.4 559.05 588.24 588.19 654.79 590.58 660.26 590.58 660.26 606.42 696.44 599.28 696.44 599.28 874.06 617.59 874.06 617.59 1838.35 2047.75 1838.35 2047.75 874.06 2066.07 874.06 2066.07 696.44 736.65 696.44"/><path class="cls-4" d="M714.65,570.77l-1.3-50.08-34.72,15.2,27.76,25.09c3.44,3.11,6.14,6.4,8.26,9.79Z"/><path class="cls-4" d="M627.67,696.44l18.73-50.37c-31.48,9.98-55.78-4.35-55.46-34.55l.39-37.42-2.96,1.29,1.55,59.36.66,25.5h0s15.84,36.18,15.84,36.18h21.25Z"/><path class="cls-4" d="M716.51,642.29l-.38-14.74-.59-22.69c-2.17,3.9-5.1,7.64-8.8,11.14l9.78,26.29Z"/><polygon class="cls-4" points="833.43 576.19 834.77 627.64 834.77 627.64 959.75 572.93 959.75 572.93 958.41 521.48 957.17 473.99 955.62 414.63 830.65 469.34 832.2 528.7 833.43 576.19"/><polygon class="cls-4" points="1075.71 470.13 1077.05 521.58 1077.05 521.58 1202.02 466.87 1202.02 466.87 1200.68 415.42 1199.45 367.92 1197.9 308.56 1072.93 363.27 1074.47 422.64 1075.71 470.13"/><polygon class="cls-4" points="1317.99 364.06 1319.33 415.51 1319.33 415.51 1444.3 360.8 1444.3 360.8 1442.96 309.35 1441.72 261.86 1440.18 202.5 1315.21 257.21 1316.75 316.57 1317.99 364.06"/><polygon class="cls-4" points="1560.27 258 1561.61 309.45 1561.61 309.45 1686.58 254.74 1685.24 203.29 1684 155.8 1682.46 96.43 1557.48 151.14 1559.03 210.51 1560.27 258"/><polygon class="cls-4" points="1802.54 151.93 1803.88 203.38 1803.88 203.38 1928.86 148.67 1927.52 97.22 1926.39 54.06 1926.39 54.06 1902.73 0 1799.76 45.08 1801.31 104.44 1802.54 151.93"/><path class="cls-4" d="M748.43,749.88c.16.93.28,1.84.39,2.75l15.9-47.31h-24.77l5.22,14.04c4.09,11,5,21.37,3.26,30.51Z"/><path class="cls-4" d="M1950.68,705.32l-19.41,57.72-17.91,53.28-19.41,57.72h0s-128.05,0-128.05,0h0s19.41-57.72,19.41-57.72l17.91-53.28,19.41-57.72h-136.42l-19.41,57.72-17.91,53.28-19.41,57.72h0s-128.05,0-128.05,0h0s19.41-57.72,19.41-57.72l17.91-53.28,19.41-57.72h-136.42l-19.41,57.72-17.91,53.28-19.41,57.72h0s-128.05,0-128.05,0h0s19.41-57.72,19.41-57.72l17.91-53.28,19.41-57.72h-136.42l-19.41,57.72-17.91,53.28-19.41,57.72h0s-128.05,0-128.05,0h0s19.41-57.72,19.41-57.72l17.91-53.28,19.41-57.72h-136.42l-19.41,57.72-17.91,53.28-19.41,57.72h0s-128.05,0-128.05,0h0s19.41-57.72,19.41-57.72l8.56-25.45c-8.66,7.98-21.15,12.76-36.58,12.76h-34.45c-34.24,0-54.26-23.27-49.05-53.76-.34-1.79-.59-3.62-.72-5.51l-6.28,18.67-9.62,28.61h0v82.4h18.31v964.29h1430.17v-964.29h-17.37,0s19.41-57.72,19.41-57.72l16.28-48.43v-62.58h-115.38ZM1983.18,1531.97h-302.68v236.82h-26.64v-236.82h-621.65v236.82h-26.64v-236.82h-323.41v-22.2h1301.02v22.2ZM682.16,1317.35v-22.2h1301.02v22.2H682.16ZM1983.18,1102.73H682.16v-22.2h1301.02v22.2Z"/><path class="cls-4" d="M714.65,570.77l-1.3-50.08-34.72,15.2,27.76,25.09c3.44,3.11,6.14,6.4,8.26,9.79Z"/><path class="cls-4" d="M627.67,696.44l18.73-50.37c-31.48,9.98-55.78-4.35-55.46-34.55l.39-37.42-2.96,1.29,1.55,59.36.66,25.5h0s15.84,36.18,15.84,36.18h21.25Z"/><path class="cls-4" d="M716.51,642.29l-.38-14.74-.59-22.69c-2.17,3.9-5.1,7.64-8.8,11.14l9.78,26.29Z"/><polygon class="cls-4" points="833.43 576.19 834.77 627.64 834.77 627.64 959.75 572.93 959.75 572.93 958.41 521.48 957.17 473.99 955.62 414.63 830.65 469.34 832.2 528.7 833.43 576.19"/><polygon class="cls-4" points="1075.71 470.13 1077.05 521.58 1077.05 521.58 1202.02 466.87 1202.02 466.87 1200.68 415.42 1199.45 367.92 1197.9 308.56 1072.93 363.27 1074.47 422.64 1075.71 470.13"/><polygon class="cls-4" points="1317.99 364.06 1319.33 415.51 1319.33 415.51 1444.3 360.8 1444.3 360.8 1442.96 309.35 1441.72 261.86 1440.18 202.5 1315.21 257.21 1316.75 316.57 1317.99 364.06"/><polygon class="cls-4" points="1560.27 258 1561.61 309.45 1561.61 309.45 1686.58 254.74 1686.58 254.74 1685.24 203.29 1684 155.8 1682.46 96.43 1557.48 151.14 1559.03 210.51 1560.27 258"/><polygon class="cls-4" points="1802.54 151.93 1803.88 203.38 1803.88 203.38 1928.86 148.67 1928.86 148.67 1927.52 97.22 1926.39 54.06 1926.39 54.06 1902.73 0 1799.76 45.08 1801.31 104.44 1802.54 151.93"/><path class="cls-4" d="M1966.56,1317.35H682.16v-22.2h1249.34c-128.81-78.72-280.39-141.92-435.1-192.41h-814.23v-22.2h743.38c-318.18-95.72-636.93-139.91-787.04-156.88v885.09h1388.35v-449.12c-19.35-14.54-39.47-28.63-60.29-42.28ZM1983.18,1531.97h-302.68v236.82h-26.64v-236.82h-621.65v236.82h-26.64v-236.82h-323.41v-22.2h1301.02v22.2Z"/><text/><path class="cls-4" d="M764.72,705.32h-24.77l5.22,14.04c4.09,11,5,21.37,3.26,30.51.16.93.28,1.84.39,2.75l15.9-47.31Z"/><path class="cls-4" d="M708,874.06h0s19.41-57.72,19.41-57.72l8.56-25.45c-8.66,7.98-21.15,12.76-36.58,12.76h-34.45c-34.24,0-54.26-23.27-49.05-53.76-.34-1.79-.59-3.62-.72-5.51l-6.28,18.67-9.62,28.61h0v82.4h108.72Z"/><polygon class="cls-4" points="991.88 816.33 1009.79 763.05 1029.2 705.32 892.78 705.32 873.37 763.05 855.46 816.33 836.05 874.06 836.05 874.06 972.47 874.06 972.47 874.06 991.88 816.33"/><polygon class="cls-4" points="1256.36 816.33 1274.27 763.05 1293.68 705.32 1157.25 705.32 1137.85 763.05 1119.93 816.33 1100.53 874.06 1100.53 874.06 1236.95 874.06 1236.95 874.06 1256.36 816.33"/><polygon class="cls-4" points="1520.83 816.33 1538.75 763.05 1558.15 705.32 1421.73 705.32 1402.32 763.05 1384.41 816.33 1365.01 874.06 1365.01 874.06 1501.43 874.06 1501.43 874.06 1520.83 816.33"/><polygon class="cls-4" points="1785.31 816.33 1803.22 763.05 1822.63 705.32 1686.21 705.32 1666.8 763.05 1648.89 816.33 1629.48 874.06 1629.48 874.06 1765.91 874.06 1765.91 874.06 1785.31 816.33"/><polygon class="cls-4" points="1931.28 763.05 1913.37 816.33 1893.96 874.06 1893.96 874.06 2030.38 874.06 2030.38 874.06 2049.79 816.33 2066.07 767.9 2066.07 705.32 1950.68 705.32 1931.28 763.05"/><path class="cls-8" d="M716.13,627.55l117.3-51.35-1.24-47.49-113.8,49.82c2.93,8.79,1.83,17.91-2.86,26.34l.59,22.69Z"/><polygon class="cls-8" points="1926.39 54.06 1927.52 97.22 1942.43 90.69 1926.39 54.06"/><polygon class="cls-8" points="1074.47 422.64 957.17 473.99 958.41 521.48 1075.71 470.13 1074.47 422.64"/><polygon class="cls-8" points="1559.03 210.51 1441.72 261.86 1442.96 309.35 1560.27 258 1559.03 210.51"/><polygon class="cls-8" points="1801.31 104.44 1684 155.8 1685.24 203.29 1802.54 151.93 1801.31 104.44"/><polygon class="cls-8" points="1316.75 316.57 1199.45 367.92 1200.68 415.42 1317.99 364.06 1316.75 316.57"/><polygon class="cls-8" points="590.58 660.26 589.92 634.77 581.11 638.62 590.58 660.26"/><polygon class="cls-9" points="1942.43 90.69 1942.43 90.69 1927.52 97.22 1928.86 148.67 1961.55 134.36 1942.43 90.69"/><polygon class="cls-9" points="1317.99 364.06 1200.68 415.42 1202.02 466.87 1319.33 415.51 1317.99 364.06"/><polygon class="cls-9" points="1075.71 470.13 958.41 521.48 959.75 572.93 1077.05 521.58 1075.71 470.13"/><polygon class="cls-9" points="716.13 627.55 716.51 642.29 728.39 674.22 834.77 627.64 833.43 576.19 716.13 627.55"/><polygon class="cls-9" points="1560.27 258 1442.96 309.35 1444.3 360.8 1561.61 309.45 1560.27 258"/><polygon class="cls-9" points="1802.54 151.93 1685.24 203.29 1686.58 254.74 1803.88 203.38 1802.54 151.93"/><path class="cls-3" d="M646.4,646.07l11.26-30.28c13.47-36.23,35.52-36.23,49,0l.08.21c3.7-3.49,6.63-7.24,8.8-11.14,4.69-8.43,5.79-17.55,2.86-26.34-.88-2.63-2.16-5.21-3.75-7.75-2.13-3.39-4.82-6.68-8.26-9.79l-27.76-25.09-87.3,38.22-.39,37.42c-.32,30.2,23.99,44.54,55.46,34.55Z"/><path class="cls-8" d="M873.37,763.05h-124.22c-.84,11.17-5.51,20.76-13.19,27.83l-8.56,25.45h128.05l17.91-53.28Z"/><polygon class="cls-8" points="2066.07 816.33 2066.07 767.9 2049.79 816.33 2066.07 816.33"/><polygon class="cls-8" points="1384.41 816.33 1402.32 763.05 1274.27 763.05 1256.36 816.33 1384.41 816.33"/><polygon class="cls-8" points="1648.89 816.33 1666.8 763.05 1538.75 763.05 1520.83 816.33 1648.89 816.33"/><polygon class="cls-8" points="1913.37 816.33 1931.28 763.05 1803.22 763.05 1785.31 816.33 1913.37 816.33"/><polygon class="cls-8" points="1119.93 816.33 1137.85 763.05 1009.79 763.05 991.88 816.33 1119.93 816.33"/><polygon class="cls-8" points="599.28 791.66 608.89 763.05 599.28 763.05 599.28 791.66"/><polygon class="cls-9" points="972.47 874.06 1100.53 874.06 1119.93 816.33 991.88 816.33 972.47 874.06"/><polygon class="cls-9" points="1765.91 874.06 1893.96 874.06 1913.37 816.33 1785.31 816.33 1765.91 874.06"/><polygon class="cls-9" points="2030.38 874.06 2066.07 874.06 2066.07 816.33 2049.79 816.33 2030.38 874.06"/><polygon class="cls-9" points="1236.95 874.06 1365.01 874.06 1384.41 816.33 1256.36 816.33 1236.95 874.06"/><polygon class="cls-9" points="1501.43 874.06 1629.48 874.06 1648.89 816.33 1520.83 816.33 1501.43 874.06"/><polygon class="cls-9" points="855.46 816.33 727.4 816.33 708 874.06 836.05 874.06 855.46 816.33"/><path class="cls-3" d="M749.15,763.05c.25-3.34.11-6.83-.33-10.42-.11-.91-.23-1.82-.39-2.75-4,20.97-22.12,35.37-49.05,35.37h-34.45c-26.92,0-45.05-14.4-49.05-35.37-5.22,30.49,14.81,53.76,49.05,53.76h34.45c15.43,0,27.92-4.78,36.58-12.76,7.68-7.07,12.34-16.66,13.19-27.83Z"/><path class="cls-8" d="M716.51,642.29l-9.78-26.29-.08-.21c-13.47-36.23-35.52-36.23-49,0l-11.26,30.28-18.73,50.37-8.53,22.92c-3.29,8.84-4.52,17.28-3.98,25.01.13,1.88.38,3.71.72,5.51,4,20.97,22.12,35.37,49.05,35.37h34.45c26.92,0,45.05-14.4,49.05-35.37,1.74-9.14.84-19.51-3.26-30.51l-5.22-14.04-3.3-8.88-8.26-22.23h0s-11.87-31.93-11.87-31.93ZM697.44,778.05h-30.56c-34.3,0-52.59-26.31-40.63-58.46l34.17-91.9c11.96-32.15,31.52-32.15,43.47,0l34.17,91.9c11.96,32.15-6.33,58.46-40.63,58.46Z"/><path class="cls-7" d="M738.07,719.6l-34.17-91.9c-11.95-32.15-31.52-32.15-43.47,0l-34.17,91.9c-11.96,32.15,6.33,58.46,40.63,58.46h30.56c34.3,0,52.59-26.31,40.63-58.46ZM726.57,736.77c0,1.09-.18,2.13-.43,3.15.25,1.01.43,2.05.43,3.15,0,7.15-5.8,12.95-12.95,12.95s-12.95-5.8-12.95-12.95c0-1.09.18-2.13.43-3.15-.25-1.01-.43-2.05-.43-3.15,0-7.15,5.8-12.95,12.95-12.95s12.95,5.8,12.95,12.95ZM669.21,643.53c0-7.15,5.8-12.95,12.95-12.95s12.95,5.8,12.95,12.95c0,1.09-.18,2.13-.43,3.15.25,1.01.43,2.05.43,3.15,0,7.15-5.8,12.95-12.95,12.95s-12.95-5.8-12.95-12.95c0-1.09.18-2.13.43-3.15-.25-1.01-.43-2.05-.43-3.15ZM651.45,726.96c7.15,0,12.95,5.8,12.95,12.95,0,1.09-.18,2.13-.43,3.15.25,1.01.43,2.05.43,3.15,0,7.15-5.8,12.95-12.95,12.95s-12.95-5.8-12.95-12.95c0-1.09.18-2.13.43-3.15-.25-1.01-.43-2.05-.43-3.15,0-7.15,5.8-12.95,12.95-12.95Z"/><path class="cls-2" d="M669.21,649.82c0,7.15,5.8,12.95,12.95,12.95s12.95-5.8,12.95-12.95c0-1.09-.18-2.13-.43-3.15-1.41,5.62-6.46,9.81-12.52,9.81s-11.11-4.18-12.52-9.81c-.25,1.01-.43,2.05-.43,3.15Z"/><path class="cls-6" d="M682.16,656.48c6.06,0,11.11-4.18,12.52-9.81.25-1.01.43-2.05.43-3.15,0-7.15-5.8-12.95-12.95-12.95s-12.95,5.8-12.95,12.95c0,1.09.18,2.13.43,3.15,1.41,5.62,6.46,9.81,12.52,9.81Z"/><path class="cls-2" d="M651.45,752.87c-6.06,0-11.11-4.18-12.52-9.81-.25,1.01-.43,2.05-.43,3.15,0,7.15,5.8,12.95,12.95,12.95s12.95-5.8,12.95-12.95c0-1.09-.18-2.13-.43-3.15-1.41,5.62-6.46,9.81-12.52,9.81Z"/><path class="cls-6" d="M638.93,743.06c1.41,5.62,6.46,9.81,12.52,9.81s11.11-4.18,12.52-9.81c.25-1.01.43-2.05.43-3.15,0-7.15-5.8-12.95-12.95-12.95s-12.95,5.8-12.95,12.95c0,1.09.18,2.13.43,3.15Z"/><path class="cls-2" d="M713.61,749.72c-6.06,0-11.11-4.18-12.52-9.81-.25,1.01-.43,2.05-.43,3.15,0,7.15,5.8,12.95,12.95,12.95s12.95-5.8,12.95-12.95c0-1.09-.18-2.13-.43-3.15-1.41,5.62-6.46,9.81-12.52,9.81Z"/><path class="cls-6" d="M713.61,723.82c-7.15,0-12.95,5.8-12.95,12.95,0,1.09.18,2.13.43,3.15,1.41,5.62,6.46,9.81,12.52,9.81s11.11-4.18,12.52-9.81c.25-1.01.43-2.05.43-3.15,0-7.15-5.8-12.95-12.95-12.95Z"/><text class="cls-1" transform="translate(1029.2 1028.5)"><tspan x="0" y="0">CINNABUNDAY</tspan></text><text/></svg>